<?xml version="1.0" encoding="UTF-8" standalone="no"?>
<!-- Created with Inkscape (http://www.inkscape.org/) -->

<svg
   version="1.1"
   id="svg1"
   width="823"
   height="817"
   viewBox="0 0 823 817"
   sodipodi:docname="Cherry4.svg"
   inkscape:version="1.4 (e7c3feb100, 2024-10-09)"
   xmlns:inkscape="http://www.inkscape.org/namespaces/inkscape"
   xmlns:sodipodi="http://sodipodi.sourceforge.net/DTD/sodipodi-0.dtd"
   xmlns="http://www.w3.org/2000/svg"
   xmlns:svg="http://www.w3.org/2000/svg">
  <defs
     id="defs1">
    <inkscape:path-effect
       effect="bspline"
       id="path-effect6"
       is_visible="true"
       lpeversion="1.3"
       weight="33.333333"
       steps="2"
       helper_size="0"
       apply_no_weight="true"
       apply_with_weight="true"
       only_selected="false"
       uniform="false" />
    <inkscape:path-effect
       effect="bspline"
       id="path-effect5"
       is_visible="true"
       lpeversion="1.3"
       weight="33.333333"
       steps="2"
       helper_size="0"
       apply_no_weight="true"
       apply_with_weight="true"
       only_selected="false"
       uniform="false" />
    <inkscape:path-effect
       effect="bspline"
       id="path-effect4"
       is_visible="true"
       lpeversion="1.3"
       weight="33.333333"
       steps="2"
       helper_size="0"
       apply_no_weight="true"
       apply_with_weight="true"
       only_selected="false"
       uniform="false" />
    <inkscape:path-effect
       effect="bspline"
       id="path-effect3"
       is_visible="true"
       lpeversion="1.3"
       weight="33.333333"
       steps="2"
       helper_size="0"
       apply_no_weight="true"
       apply_with_weight="true"
       only_selected="false"
       uniform="false" />
    <inkscape:path-effect
       effect="bspline"
       id="path-effect2"
       is_visible="true"
       lpeversion="1.3"
       weight="33.333333"
       steps="2"
       helper_size="0"
       apply_no_weight="true"
       apply_with_weight="true"
       only_selected="false"
       uniform="false" />
  </defs>
  <sodipodi:namedview
     id="namedview1"
     pagecolor="#ffffff"
     bordercolor="#000000"
     borderopacity="0.25"
     inkscape:showpageshadow="2"
     inkscape:pageopacity="0.0"
     inkscape:pagecheckerboard="0"
     inkscape:deskcolor="#d1d1d1"
     showgrid="false"
     inkscape:zoom="0.97"
     inkscape:cx="375.7732"
     inkscape:cy="354.63918"
     inkscape:window-width="1920"
     inkscape:window-height="1011"
     inkscape:window-x="0"
     inkscape:window-y="0"
     inkscape:window-maximized="1"
     inkscape:current-layer="layer1" />
  <g
     inkscape:groupmode="layer"
     id="layer1"
     inkscape:label="Layer 1">
    <path
       style="fill:#44aa00;fill-opacity:1;stroke:none;stroke-width:2.7;stroke-linecap:round"
       d="m 380.69217,110.65574 c -12.02186,-3.36977 -34.06193,-4.28051 -53.64316,-0.63744 -19.58123,3.64306 -36.70293,11.83962 -53.46083,23.40626 -16.75791,11.56663 -33.15102,26.50258 -50.27324,44.17127 -17.12222,17.66869 -34.9725,38.06902 -46.26581,51.54813 -11.29331,13.47912 -16.0291,20.03636 -14.93613,23.77044 1.09297,3.73407 8.0145,4.6448 22.04022,4.91802 14.02571,0.27322 35.15461,-0.0911 53.09647,-0.7286 17.94186,-0.63753 32.69567,-1.54826 47.54099,-4.18947 14.84532,-2.64121 29.78127,-7.01271 42.80506,-12.93264 13.02379,-5.91993 24.13468,-13.3879 32.33145,-21.94902 8.19678,-8.56112 13.479,-18.21484 17.94169,-28.14208 4.4627,-9.92724 8.10562,-20.1274 11.11111,-30.87433 3.00549,-10.74692 5.37338,-22.03996 5.55551,-30.60104 0.18213,-8.56108 -1.82148,-14.38974 -13.84333,-17.7595 z"
       id="path4"
       inkscape:path-effect="#path-effect4"
       inkscape:original-d="m 390.71038,108.19672 c -22.04007,-0.91075 -44.08014,-1.82149 -66.12022,-2.73224 -17.12238,8.19689 -34.24408,16.39344 -51.36612,24.59016 -16.39377,14.93655 -32.78688,29.8725 -49.18032,44.80875 -17.851,20.40113 -35.70128,40.80146 -53.55192,61.20218 -4.73597,6.55751 -9.47176,13.11476 -14.20765,19.67213 6.92182,0.91077 13.84335,1.8215 20.76503,2.73225 21.12975,-0.36431 42.25865,-0.7286 63.38798,-1.0929 14.75439,-0.91077 29.5082,-1.82149 44.26229,-2.73224 14.93655,-4.37167 29.8725,-8.74317 44.80875,-13.11476 11.11133,-7.46827 22.22222,-14.93624 33.33333,-22.40437 5.28244,-9.65411 10.56466,-19.30783 15.84699,-28.96175 3.64306,-10.20056 7.28598,-20.40072 10.92897,-30.60109 2.36799,-11.29348 4.73588,-22.58652 7.10382,-33.87978 -2.00368,-5.8289 -4.00728,-11.65756 -6.01093,-17.48634 z" />
    <path
       style="display:inline;fill:#225500;fill-opacity:1;stroke:none;stroke-width:2.7;stroke-linecap:round"
       d="m 383.4728,117.57322 c -3.55648,-0.27894 -8.5774,1.11576 -21.6878,5.71835 -13.11039,4.60259 -34.30941,12.41275 -52.64987,21.75735 -18.34046,9.3446 -33.82132,20.22305 -51.60395,34.93732 -17.78263,14.71427 -37.86591,33.26341 -49.16301,43.93289 -11.29709,10.66949 -13.8075,13.45883 -5.57858,14.29564 8.22892,0.83681 27.19646,-0.27893 46.93167,-2.58022 19.73522,-2.30129 40.2369,-5.78797 57.25237,-11.855 17.01548,-6.06703 30.5438,-14.714 41.07387,-25.31384 10.53006,-10.59985 18.06129,-23.1519 24.75591,-36.26222 6.69462,-13.11032 12.55224,-26.77811 14.43506,-34.58845 1.88283,-7.81034 -0.20918,-9.76288 -3.76567,-10.04182 z"
       id="path5"
       inkscape:path-effect="#path-effect6"
       inkscape:original-d="m 384.93724,115.89958 c -5.02092,1.3947 -10.04184,2.7894 -15.06276,4.1841 -21.19987,7.81048 -42.39889,15.62064 -63.59833,23.43096 -15.48148,10.87888 -30.96234,21.75733 -46.44351,32.63599 -20.08409,18.54988 -40.16737,37.09902 -60.25105,55.64853 -2.51051,2.78946 -5.02092,5.5788 -7.53138,8.3682 18.9683,-1.11578 37.93584,-2.23152 56.90376,-3.34728 20.50251,-3.48682 41.00419,-6.9735 61.50628,-10.46025 13.52886,-8.64731 27.05718,-17.29428 40.58578,-25.94142 7.53153,-12.55255 15.06276,-25.1046 22.59414,-37.6569 5.85786,-13.66834 11.71548,-27.33613 17.57322,-41.00419 -2.09209,-1.95262 -4.1841,-3.90516 -6.27615,-5.85774 z"
       transform="translate(2.9288703,-2.0920502)" />
    <path
       style="fill:#ff0000;fill-opacity:1;stroke:none;stroke-width:2.7;stroke-linecap:round"
       d="m 206.8306,352.45902 c 16.30237,-9.65392 30.69217,-13.84335 46.17503,-14.663 15.48286,-0.81965 32.05812,1.73039 49.90895,10.83802 17.85083,9.10762 36.97613,24.77215 52.27679,41.16577 15.30066,16.39361 26.77584,33.51531 32.60462,51.73044 5.82878,18.21513 6.01093,37.52257 0.36419,56.8306 -5.64675,19.30802 -17.12193,38.61547 -30.51006,56.83058 -13.38814,18.21511 -28.68837,35.3368 -41.71216,46.35689 -13.02379,11.02008 -23.77038,15.93802 -34.5173,16.02904 -10.74692,0.091 -21.49352,-4.64476 -30.05461,-6.46624 -8.56108,-1.82148 -14.93618,-0.72861 -22.76869,4.46274 -7.83252,5.19135 -17.12195,14.48078 -23.40614,20.67389 -6.28418,6.19311 -9.5628,9.28959 -21.31164,2.73205 -11.74884,-6.55754 -31.96701,-22.76851 -47.26766,-36.42982 -15.30065,-13.66131 -25.68296,-24.7722 -32.60467,-32.33144 -6.92171,-7.55924 -10.382481,-11.56645 -6.921536,-21.12944 3.460946,-9.56299 13.843256,-24.68109 20.582806,-35.15473 6.73956,-10.47365 9.83603,-16.30231 9.836,-22.67761 -3e-5,-6.3753 -3.0965,-13.29683 -6.4663,-18.94351 -3.3698,-5.64667 -7.01272,-10.01817 -1.5481,-23.13314 5.46463,-13.11497 20.03629,-34.97246 36.42992,-53.46077 16.39362,-18.48831 34.60819,-33.6064 50.91056,-43.26032 z"
       id="path3"
       inkscape:path-effect="#path-effect3"
       inkscape:original-d="m 208.74317,346.99454 c 14.3898,-4.18944 28.7796,-8.37888 43.1694,-12.56831 16.57592,2.55014 33.15118,5.10018 49.72677,7.65027 19.12607,15.66516 38.25137,31.32969 57.37705,46.99454 11.47564,17.12238 22.95082,34.24408 34.42623,51.36612 0.18216,19.30822 0.3643,38.61566 0.54645,57.9235 -11.47564,19.30821 -22.95082,38.61566 -34.42623,57.92349 -15.30085,17.12239 -30.60109,34.24408 -45.90164,51.36612 -10.74703,4.91813 -21.49362,9.83607 -32.24043,14.7541 -10.74703,-4.73598 -21.49363,-9.47177 -32.24044,-14.20765 -6.37536,1.09292 -12.75046,2.18579 -19.12569,3.27869 -9.2898,9.2898 -18.57923,18.57923 -27.86885,27.86885 -3.27875,3.0966 -6.55737,6.19308 -9.83606,9.28962 C 172.13074,632.42226 151.91257,616.21129 131.69399,600 c -10.38272,-11.11133 -20.76503,-22.22222 -31.14754,-33.33333 -3.460909,-4.00737 -6.921678,-8.01458 -10.382516,-12.02186 10.382726,-15.1187 20.765026,-30.2368 31.147546,-45.35519 3.0966,-5.8289 6.19307,-11.65756 9.28961,-17.48634 -3.0966,-6.92182 -6.19308,-13.84335 -9.28961,-20.76503 -3.64306,-4.37167 -7.28598,-8.74317 -10.92897,-13.11475 14.57224,-21.85836 29.1439,-43.71585 43.71585,-65.57377 18.2153,-15.1187 36.42987,-30.2368 54.64481,-45.35519 z" />
    <path
       style="fill:#ff0000;stroke:none;stroke-width:2.7;stroke-linecap:round;fill-opacity:1"
       d="m 550.54645,347.8142 c 21.40255,-5.55555 51.27504,-8.10564 75.68325,-5.8287 24.4082,2.27694 43.35136,9.38062 58.28772,20.58296 14.93635,11.20234 25.8651,26.50258 32.69573,44.35342 6.83062,17.85084 9.56281,38.25116 10.47355,63.297 0.91074,25.04583 10e-6,54.73558 -4.64489,71.49336 -4.64489,16.75778 -13.0236,20.58284 -20.0364,22.95079 -7.01281,2.36795 -12.65933,3.27868 -15.84695,9.47188 -3.18762,6.19319 -3.9162,17.66837 -4.55373,29.23497 -0.63753,11.5666 -1.18396,23.22393 -6.01101,30.60101 -4.82705,7.37708 -13.93434,10.47355 -34.60861,12.56828 -20.67428,2.09473 -52.91407,3.1876 -70.76474,2.45898 -17.85068,-0.72862 -21.31144,-3.27866 -25.95631,-14.29889 -4.64487,-11.02023 -10.47353,-30.50982 -17.85067,-42.07635 -7.37714,-11.56652 -16.30228,-15.20943 -24.49908,-19.76322 -8.19679,-4.55379 -15.66477,-10.01816 -20.58282,-20.58298 -4.91806,-10.56482 -7.28595,-26.22935 -9.92714,-45.81064 -2.6412,-19.58129 -5.55553,-43.07809 -4.64474,-60.65562 0.9108,-17.57753 5.64659,-29.23486 12.20405,-40.80146 6.55746,-11.5666 14.93616,-23.04178 25.59203,-33.06008 10.65586,-10.0183 23.58821,-18.57915 44.99076,-24.13471 z"
       id="path2"
       inkscape:path-effect="#path-effect2"
       inkscape:original-d="m 542.0765,344.80874 c 29.8725,-2.55009 59.74499,-5.10018 89.61749,-7.65027 18.94391,7.10397 37.88707,14.20765 56.8306,21.31148 10.92918,15.30085 21.85792,30.60109 32.78689,45.90163 2.73229,20.40114 5.46448,40.80146 8.19672,61.20219 -0.91077,29.69094 -1.8215,59.38069 -2.73224,89.07104 -8.37904,3.82521 -16.75775,7.65027 -25.13662,11.47541 -5.64674,0.91076 -11.29326,1.82149 -16.93989,2.73224 -0.72861,11.47564 -1.45719,22.95082 -2.18579,34.42623 -0.54646,11.65779 -1.09289,23.31512 -1.63934,34.97268 -9.10765,3.0966 -18.21494,6.19307 -27.32241,9.28961 -32.24108,1.09292 -64.48087,2.1858 -96.72131,3.27869 -3.46091,-2.55014 -6.92167,-5.10018 -10.38251,-7.65027 -5.8289,-19.49037 -11.65756,-38.97996 -17.48634,-58.46995 -8.9255,-3.64306 -17.85064,-7.28597 -26.77596,-10.92896 -7.46827,-5.46459 -14.93625,-10.92896 -22.40437,-16.39344 -2.36799,-15.66516 -4.73588,-31.32969 -7.10382,-46.99454 -2.91445,-23.49773 -5.82878,-46.99453 -8.74317,-70.4918 4.73597,-11.65779 9.47176,-23.31512 14.20765,-34.97268 8.37903,-11.47564 16.75774,-22.95082 25.13661,-34.42623 12.93286,-8.56119 25.86521,-17.12204 38.79781,-25.68306 z" />
    <path
       style="fill:#000000;stroke:none"
       d="m 545.5,658.13034 c -5.5299,-2.51762 -9.74788,-6.28316 -13.38223,-11.94682 -3.00662,-4.68541 -3.14052,-5.4092 -5.1147,-27.64898 -2.30763,-25.99609 -2.82242,-27.51901 -10.72796,-31.73726 -3.73923,-1.99518 -6.75009,-2.66729 -13.87919,-3.0982 -10.82253,-0.65417 -14.71902,-2.11218 -20.91982,-7.82787 -8.73976,-8.05604 -9.60116,-11.1672 -15.8846,-57.37121 -8.14155,-59.86722 -8.82326,-70.98648 -5.47061,-89.2301 4.1463,-22.56237 16.28219,-45.23077 33.6833,-62.91646 20.29564,-20.62754 44.53057,-32.49054 73.09875,-35.78185 7.37162,-0.84928 13.67162,-1.81294 14,-2.14147 1.01973,-1.02018 0.39566,-33.39706 -0.84676,-43.93012 -3.8105,-32.30497 -13.77445,-65.62744 -29.09203,-97.29255 -4.33472,-8.9609 -10.24364,-20.20351 -13.13095,-24.98359 -12.48075,-20.66252 -29.54217,-39.56818 -45.31103,-50.2089 C 480.09191,103.62711 457.95349,93.293028 442.23,88.538885 l -2.27,-0.686355 2.63123,5.823735 c 13.16992,29.149185 19.44525,57.602445 18.04611,81.823735 -1.80162,31.18889 -11.02244,63.413 -28.69994,100.29807 -17.29479,36.08654 -39.10834,66.14941 -65.71417,90.56556 l -6.98387,6.4091 10.95279,10.86363 c 17.59133,17.44814 28.45599,35.69452 34.33526,57.66344 7.84049,29.29735 4.34779,59.98125 -10.11362,88.84968 -7.28574,14.54407 -20.41064,28.75439 -60.25171,65.23447 -29.31627,26.84315 -38.47234,34.20843 -43.75873,35.20016 -1.96979,0.36954 -6.57887,0.45671 -10.2424,0.19372 -7.3034,-0.52428 -12.98242,-2.92616 -18.61805,-7.87431 -4.22902,-3.71312 -12.18015,-6.89541 -17.30363,-6.92544 -3.53125,-0.0207 -4.66241,0.92433 -20.33321,16.9872 -18.87328,19.34549 -21.73655,21.19972 -32.8435,21.26925 -10.27676,0.0643 -16.036,-2.31866 -24.40724,-10.09896 C 139.15364,618.57527 109.50757,590.52568 98.340921,579.5 84.000196,565.34032 83.011154,563.63059 83.011154,553 c 0,-8.26139 1.689954,-12.92244 6.888828,-19 2.587648,-3.025 6.029324,-7.3 7.64817,-9.5 1.618846,-2.2 5.674428,-7.375 9.012418,-11.5 13.9072,-17.1862 14.10889,-18.87011 3.65314,-30.5 -6.98743,-7.7721 -9.16366,-11.64852 -10.36348,-18.45998 -1.529975,-8.68581 0.01598,-14.96848 5.82467,-23.67119 6.66855,-9.99098 54.5254,-69.52812 63.18213,-78.60284 14.24173,-14.92938 30.04568,-25.16546 48.12841,-31.17234 36.02684,-11.96772 76.46727,-7.34786 106.51456,12.16809 3.3,2.14337 9.80583,7.12382 14.4574,11.06765 4.65157,3.94384 8.77868,7.17061 9.17136,7.17061 1.68215,0 27.27257,-26.36836 34.65357,-35.70704 31.50702,-39.86367 56.23695,-96.17325 61.25487,-139.47618 1.49537,-12.90461 0.82965,-32.25961 -1.48991,-43.31678 C 438.26302,126.84411 425.48271,93 422.85497,93 422.38473,93 422,93.34716 422,93.771466 c 0,1.522224 -7.58333,12.229914 -11.75,16.591044 -4.08344,4.27401 -4.25027,4.69699 -4.25701,10.79291 -0.009,8.42438 -2.47891,18.20655 -10.81659,42.84458 -8.01234,23.67669 -9.79561,28.2922 -14.77129,38.23154 -17.50002,34.95776 -49.86556,52.11258 -115.90511,61.4336 -11.26987,1.59066 -19.5415,1.82314 -62.152,1.74677 -51.45094,-0.0922 -54.15106,-0.3069 -56.38622,-4.48332 -1.67343,-3.12684 -1.08411,-8.94485 1.24329,-12.27422 1.21279,-1.7349 10.16099,-11.47937 19.8849,-21.65437 9.72391,-10.175 25.26191,-27.275 34.52889,-38 43.72028,-50.59899 76.09633,-75.53469 111.38114,-85.78459 7.50899,-2.18129 10.99324,-2.52596 29.88479,-2.95632 21.15824,-0.481989 43.5607,0.81919 48.87212,2.83859 4.161,1.58201 10.72183,-5.704916 18.25006,-20.269799 7.02433,-13.589997 8.8701,-15.285784 16.40251,-15.069721 10.07897,0.289111 41.46396,11.275648 59.46658,20.816699 36.09805,19.131301 61.78927,49.566161 84.07801,99.602221 18.99334,42.63823 27.98432,82.23946 28.0286,123.45332 l 0.0173,16.13041 18.75,-0.0951 c 14.68218,-0.0745 20.4856,0.29494 26.75,1.70274 38.64873,8.68556 68.67891,31.8465 85.8012,66.17467 11.68598,23.42901 12.24073,27.45883 12.03945,87.45688 -0.16877,50.30717 -1.073,65.59488 -4.24787,71.81814 -2.128,4.17121 -9.27389,11.18992 -13.7486,13.50388 C 719.88949,570.10851 710.21839,572 704.53885,572 c -5.5367,0 -8.03655,2.02036 -10.20866,8.25054 -1.60468,4.60265 -1.79617,8.07558 -1.5541,28.18599 0.27539,22.87881 0.2696,22.94978 -2.30036,28.20261 -3.0678,6.27036 -10.8854,13.61925 -16.75383,15.74936 -6.45136,2.34171 -34.94323,5.55687 -54.08602,6.10334 -9.42473,0.26904 -29.06088,0.70752 -43.63588,0.97438 -24.12943,0.4418 -26.85782,0.3223 -30.5,-1.33588 z M 571.75,639.00869 575,639 v -15.31291 -15.31291 l 2.75,-2.55144 c 3.59307,-3.33364 6.81092,-4.03304 10.82978,-2.35385 5.24572,2.1918 6.16527,4.67196 7.51693,20.27424 l 1.23391,14.24313 8.58469,-0.53511 c 4.72158,-0.29431 10.97963,-0.77765 13.90678,-1.07409 l 5.32209,-0.53899 -0.70189,-12.32035 c -0.89444,-15.70004 -0.29897,-19.02459 3.86197,-21.56168 6.52414,-3.97802 13.62781,-1.33694 15.72825,5.84761 0.59435,2.03299 1.39268,8.87135 1.77407,15.19635 l 0.69342,11.5 7.23201,-0.29612 c 8.80749,-0.36063 14.07569,-2.06571 16.52708,-5.34908 1.7446,-2.33671 1.78363,-3.5575 0.70065,-21.91468 -1.76522,-29.92155 -0.13776,-38.83423 8.55412,-46.84613 6.19457,-5.70996 11.43323,-8.02174 20.75624,-9.15957 10.84918,-1.32409 14.44587,-2.5713 16.513,-5.72615 1.50419,-2.29567 1.82127,-7.5406 2.60928,-43.16075 0.96658,-43.69199 0.42515,-55.43711 -3.41351,-74.04752 -2.96844,-14.39146 -5.35975,-21.13389 -10.81732,-30.5 -5.29289,-9.08349 -17.948,-22.39222 -28.35203,-29.81638 C 662.80064,357.68709 643.76889,350.69069 627,349.37278 c -7.92095,-0.62253 -54.02112,2.01768 -64.91834,3.71795 -19.09931,2.98002 -39.90667,14.58273 -55.34687,30.86283 C 489.873,401.73257 480,426.1312 480,450.02185 c 0,14.09014 11.92054,100.64665 14.64903,106.36834 0.92371,1.93704 2.39306,3.83827 3.26522,4.22496 0.87216,0.38669 7.21075,1.00044 14.08575,1.36388 14.47763,0.76536 18.29395,2.21968 25.97151,9.89724 6.07507,6.07507 7.70586,11.03292 9.03492,27.46748 1.98615,24.55983 3.97096,32.78195 9.29242,38.49409 1.93103,2.07281 2.81473,2.29016 7.20115,1.77115 2.75,-0.32538 6.4625,-0.59552 8.25,-0.6003 z M 599,562.35949 c -0.825,-0.33495 -2.7375,-1.76206 -4.25,-3.17134 -3.25235,-3.0304 -3.47171,-6.19537 -1.33967,-19.32923 1.74499,-10.74959 2.52796,-12.21695 7.60219,-14.24725 9.33929,-3.73685 14.12532,1.91073 18.15572,21.42399 1.35392,6.55503 0.12825,11.06874 -3.68391,13.56657 -2.34956,1.53949 -13.96969,2.77822 -16.48433,1.75726 z m -60.10754,-46.65338 c -14.78193,-6.23972 -21.41909,-15.46398 -22.49731,-31.26657 -0.52648,-7.71623 -0.31008,-9.73081 1.58139,-14.72185 5.62942,-14.85441 17.69376,-22.67549 35.02346,-22.70503 11.60447,-0.0198 24.21496,7.7083 29.53298,18.09868 7.37115,14.4018 4.38151,33.40911 -6.85105,43.55705 -9.69658,8.76028 -25.53224,11.7896 -36.78947,7.03772 z M 643.5,510.65038 c -7.64824,-1.98599 -12.77781,-5.05327 -17.80881,-10.64896 -6.36345,-7.07768 -9.08928,-14.40569 -9.13157,-24.54892 -0.0296,-7.09435 0.35098,-8.8286 3.2131,-14.64239 6.08278,-12.35588 16.52692,-18.9121 31.22728,-19.60266 10.90502,-0.51228 17.72583,1.84796 24.82781,8.5913 7.52379,7.14385 10.44885,13.74214 10.95018,24.70125 0.3458,7.55914 0.0514,9.95653 -1.83907,14.97474 -6.03522,16.02054 -24.65298,25.53438 -41.43892,21.17564 z M 207.5531,618.75 c 23.28297,-24.11145 28.62781,-27.53114 41.35236,-26.45769 8.31466,0.70143 14.14106,3.24145 20.97537,9.14423 11.25716,9.72278 14.21771,9.70239 25.16654,-0.17332 C 314.55508,583.66749 342.34586,557.39895 350,549.32059 381.8916,515.6615 392.26765,480.75366 381.46322,443.46982 374.47461,419.35361 367.48409,410.16462 330.68846,376.72669 307.68957,355.82652 284.70104,345.7161 260.5,345.85762 c -27.86955,0.16297 -52.48549,9.50243 -72.01868,27.32442 -7.27599,6.63857 -62.58163,75.44846 -66.34714,82.54744 -1.92611,3.63122 -0.32118,6.89841 7.6468,15.56674 9.55781,10.39791 11.50928,14.65494 11.54547,25.18585 0.0401,11.67341 -2.14505,15.30864 -22.25179,37.01793 -5.6034,6.05 -11.30268,12.86545 -12.66507,15.14543 -2.38501,3.99137 -2.41891,4.28869 -0.91199,8 0.88926,2.19009 4.07608,6.09228 7.37999,9.03662 l 5.81489,5.18204 6.40376,-6.54164 C 135.12643,554.07631 140.65265,550 144.51307,550 c 6.47225,0 11.80429,7.40488 9.5678,13.2873 -0.47812,1.25754 -4.40441,6.32633 -8.72509,11.26397 -4.32068,4.93764 -8.42021,9.69449 -9.11008,10.57078 -1.07768,1.36889 0.16738,2.90509 8.84181,10.9094 l 10.09611,9.31616 10.21827,-10.67381 c 9.61865,-10.04744 10.44948,-10.67293 14.15819,-10.65906 5.73375,0.0215 8.72523,1.91688 10.33663,6.54937 1.24111,3.56795 1.20664,4.41584 -0.30935,7.61055 -0.93833,1.97739 -5.50363,7.69885 -10.1451,12.71435 l -8.43904,9.1191 3.85034,3.47855 c 4.99406,4.51184 11.59773,7.46381 16.75845,7.49138 3.95752,0.0211 4.5564,-0.43825 15.94109,-12.22804 z M 278.5,548.23547 C 267.38011,544.18976 260.17765,537.09801 255.91742,526 c -1.71692,-4.47263 -2.02539,-6.99435 -1.65136,-13.5 0.57545,-10.00932 3.05755,-15.84719 9.7435,-22.91659 10.58477,-11.19184 25.67221,-14.19654 39.28896,-7.82449 7.93085,3.71129 15.89605,11.25453 19.01379,18.00652 1.76373,3.81966 2.18553,6.57033 2.18275,14.23456 -0.003,8.33656 -0.3406,10.18726 -2.75649,15.11179 -3.31625,6.75982 -11.92391,15.1933 -18.48781,18.1137 -6.63609,2.95252 -18.12318,3.42126 -24.75076,1.00998 z m -83.15217,-7.5833 C 190.42405,535.7284 190,534.9372 190,530.67417 c 0,-4.48253 0.20746,-4.80131 6.50557,-9.99628 3.57806,-2.95135 8.80418,-6.61716 11.61361,-8.14624 4.6315,-2.52078 5.46562,-2.67302 8.94079,-1.63183 4.47583,1.34099 7.94414,5.27061 7.93026,8.98504 -0.0181,4.83994 -7.8444,19.10644 -13.23795,24.1313 -1.46421,1.36412 -3.52377,1.98384 -6.59302,1.98384 -4.06171,0 -4.94512,-0.48152 -9.81143,-5.34783 z m 13.00722,-59.69166 C 197.85577,478.88253 187.7319,470.92526 183.14796,461.14796 180.83707,456.21896 180.5,454.22704 180.5,445.5 c 0,-9.17113 0.24105,-10.43505 2.90822,-15.24869 4.2515,-7.67304 12.85869,-15.45753 20.09568,-18.17489 7.95346,-2.98638 18.74861,-2.64434 25.82858,0.81836 7.66483,3.74874 16.04225,12.15024 18.8015,18.85552 3.38764,8.23235 3.36905,21.78921 -0.0387,28.22953 -5.59859,10.58076 -14.31569,17.85369 -24.55536,20.48727 -6.47736,1.66594 -8.86803,1.74362 -15.18485,0.49341 z M 259,248.49908 c 46.4804,-5.48401 77.99932,-17.13084 95.06663,-35.12888 9.83758,-10.37406 15.58517,-22.12055 26.11417,-53.3702 7.65984,-22.7341 10.05031,-31.25342 8.51206,-30.33589 -3.50189,2.0888 -16.68398,14.86623 -27.69286,26.84274 -19.40597,21.11168 -33.99867,33.2572 -49.46868,41.17283 -11.25626,5.75957 -29.48954,12.46459 -31.90145,11.7313 C 275.80916,208.24938 274,205.86786 274,202 c 0,-4.87796 1.85928,-6.41012 12.65316,-10.42699 24.94659,-9.28371 37.90555,-18.71743 63.33276,-46.10425 7.67563,-8.26719 17.30682,-17.94219 21.40264,-21.5 6.25953,-5.43732 7.18102,-6.62003 5.77919,-7.41747 -0.92684,-0.52723 -12.55205,-0.94783 -26.16775,-0.94674 -21.95761,0.002 -25.29649,0.2237 -32.17543,2.13872 -22.56909,6.283 -41.45182,17.91853 -67.95227,41.87216 -11.54097,10.43182 -21.77055,21.35894 -44.00092,47.00123 -6.25426,7.21416 -17.82377,19.91406 -25.71002,28.222 l -14.33865,15.10535 14.33865,0.38134 c 26.1918,0.6966 63.96782,-0.18971 77.83864,-1.82627 z"
       id="path1" />
  </g>
</svg>
